HIERARCHY
ROOT root
{
	OFFSET 0.000000 0.000000 0.000000
	CHANNELS 6 Xposition Yposition Zposition Zrotation Yrotation Xrotation
	JOINT lhip
	{
		OFFSET 0.058581 -0.082280 -0.017664
		CHANNELS 3 Zrotation Yrotation Xrotation
		JOINT lknee
		{
			OFFSET 0.043451 -0.386469 0.008037
			CHANNELS 3 Zrotation Yrotation Xrotation
			JOINT lankle
			{
				OFFSET -0.014790 -0.426874 -0.037428
				CHANNELS 3 Zrotation Yrotation Xrotation
				JOINT ltoe
				{
					OFFSET 0.041054 -0.060286 0.122042
					CHANNELS 3 Zrotation Yrotation Xrotation
					End Site
					{
						OFFSET 0.000000 0.000000 0.000000
					}
				}
			}
		}
	}
	JOINT rhip
	{
		OFFSET -0.060310 -0.090513 -0.013543
		CHANNELS 3 Zrotation Yrotation Xrotation
		JOINT rknee
		{
			OFFSET -0.043257 -0.383688 -0.004843
			CHANNELS 3 Zrotation Yrotation Xrotation
			JOINT rankle
			{
				OFFSET 0.019056 -0.420046 -0.034562
				CHANNELS 3 Zrotation Yrotation Xrotation
				JOINT rtoe
				{
					OFFSET -0.034840 -0.062106 0.130323
					CHANNELS 3 Zrotation Yrotation Xrotation
					End Site
					{
						OFFSET 0.000000 0.000000 0.000000
					}
				}
			}
		}
	}
	JOINT lowerback
	{
		OFFSET 0.004439 0.124404 -0.038385
		CHANNELS 3 Zrotation Yrotation Xrotation
		JOINT upperback
		{
			OFFSET 0.004488 0.137956 0.026820
			CHANNELS 3 Zrotation Yrotation Xrotation
			JOINT chest
			{
				OFFSET -0.002265 0.056032 0.002855
				CHANNELS 3 Zrotation Yrotation Xrotation
				JOINT lowerneck
				{
					OFFSET -0.013390 0.211636 -0.033468
					CHANNELS 3 Zrotation Yrotation Xrotation
					JOINT upperneck
					{
						OFFSET 0.010113 0.088937 0.050410
						CHANNELS 3 Zrotation Yrotation Xrotation
						End Site
						{
							OFFSET 0.000000 0.000000 0.000000
						}
					}
				}
				JOINT lclavicle
				{
					OFFSET 0.071702 0.114000 -0.018898
					CHANNELS 3 Zrotation Yrotation Xrotation
					JOINT lshoulder
					{
						OFFSET 0.122921 0.045205 -0.019046
						CHANNELS 3 Zrotation Yrotation Xrotation
						JOINT lelbow
						{
							OFFSET 0.255332 -0.015649 -0.022946
							CHANNELS 3 Zrotation Yrotation Xrotation
							JOINT lwrist
							{
								OFFSET 0.265709 0.012698 -0.007375
								CHANNELS 3 Zrotation Yrotation Xrotation
								End Site
								{
									OFFSET 0.000000 0.000000 0.000000
								}
							}
						}
					}
				}
				JOINT rclavicle
				{
					OFFSET -0.082954 0.112472 -0.023707
					CHANNELS 3 Zrotation Yrotation Xrotation
					JOINT rshoulder
					{
						OFFSET -0.113228 0.046853 -0.008472
						CHANNELS 3 Zrotation Yrotation Xrotation
						JOINT relbow
						{
							OFFSET -0.260127 -0.014369 -0.031269
							CHANNELS 3 Zrotation Yrotation Xrotation
							JOINT rwrist
							{
								OFFSET -0.269108 0.006794 -0.006027
								CHANNELS 3 Zrotation Yrotation Xrotation
								End Site
								{
									OFFSET 0.000000 0.000000 0.000000
								}
							}
						}
					}
				}
			}
		}
	}
}
MOTION
Frames: 13
Frame Time: 0.033333
-0.290695 0.391298 0.863025 -3.698449 -2.385628 92.400532 4.452689 -6.533132 -50.168459 -0.660952 21.366852 62.055280 10.366672 19.226220 -28.103331 0.000000 -0.000000 0.000000 -6.919998 3.736387 -41.842577 1.480603 -6.987615 103.909099 6.774912 -2.806975 -14.662189 0.000000 -0.000000 0.000000 -2.151465 2.175561 47.401167 0.666100 -1.973383 -8.288038 0.612681 -0.765753 2.398860 -1.286072 2.370735 -13.687185 4.514888 2.989373 -4.192000 -29.985635 -13.559911 2.848483 -46.085006 -5.937216 8.007023 15.373469 -42.114252 -12.337063 4.641979 -6.339539 -11.478317 25.290766 15.358122 1.978827 48.675198 6.587537 13.197909 -21.625692 42.474594 -16.569126 4.934496 6.225676 -8.847809 
-0.292463 0.417372 0.863881 -3.880689 -2.945785 92.948338 4.896913 -6.453200 -51.581946 -1.122299 22.277575 59.822752 10.136623 18.448231 -25.991523 0.000000 -0.000000 0.000000 -5.778239 3.616109 -38.642551 1.370247 -6.414690 100.394777 5.459836 -4.375670 -12.727570 0.000000 -0.000000 0.000000 -2.422445 2.776875 46.587991 0.625484 -2.373424 -8.095075 0.709639 -0.769413 2.459178 -1.535418 1.900541 -13.761340 4.818220 3.228088 -3.707631 -30.027977 -13.335369 2.759292 -46.197534 -5.986038 8.167703 15.381776 -42.626181 -11.929661 4.774467 -6.288685 -11.920310 25.080608 15.109702 1.872116 48.937370 6.468701 13.436570 -21.794836 42.657330 -16.432277 4.942287 6.219678 -9.168103 
-0.294995 0.444029 0.865112 -3.992931 -3.338291 93.245191 5.196611 -6.432042 -52.732095 -1.507549 22.601469 57.527273 8.984919 17.780879 -24.061409 0.000000 -0.000000 0.000000 -4.277927 4.110921 -35.295423 0.758092 -5.797105 95.357070 4.677630 -5.555703 -19.091767 0.000000 -0.000000 0.000000 -2.632269 3.272574 46.115474 0.595025 -2.834082 -7.789095 0.902225 -0.712055 2.220016 -1.668084 1.864920 -13.605230 4.970956 3.240660 -3.613088 -30.079960 -13.221052 2.593551 -46.315684 -5.609164 8.497934 15.608331 -43.258577 -11.873625 5.354112 -6.067079 -12.869589 24.938334 15.225359 1.789826 48.981554 6.042238 13.369335 -21.678641 43.027780 -16.134489 4.341065 6.338059 -9.406453 
-0.298562 0.471098 0.866535 -4.081886 -3.305479 93.052140 5.471298 -6.114747 -53.406391 -1.661087 22.258955 55.449486 7.280046 17.128943 -22.152187 0.000000 -0.000000 0.000000 -1.907512 5.335220 -31.722815 -0.962471 -4.887853 90.124645 3.817037 -6.816922 -28.568273 0.000000 -0.000000 0.000000 -2.670465 3.513222 46.164665 0.560032 -3.093431 -7.592638 1.134469 -0.590519 1.995321 -1.569172 2.336001 -13.308397 4.974946 2.893008 -3.584918 -30.186112 -13.237571 2.559683 -46.294783 -5.141685 8.503739 15.833472 -43.766297 -11.720521 5.114364 -6.018182 -13.621086 24.785965 15.540669 1.826698 48.890665 5.604676 12.947461 -21.249265 43.630976 -15.114449 3.587259 6.626866 -10.031364 
-0.302654 0.498813 0.867637 -4.038017 -3.058040 92.542073 5.782244 -5.763382 -53.852534 -1.520148 21.752467 53.553378 5.857996 16.325898 -19.246135 0.000000 -0.000000 0.000000 0.518966 6.854055 -29.086290 -2.812730 -4.232980 85.046378 3.396538 -8.392361 -35.097748 0.000000 -0.000000 0.000000 -2.641973 3.424700 46.406872 0.516119 -3.165467 -7.291916 1.320502 -0.522245 1.762172 -1.414830 2.713640 -13.115461 5.061694 2.751023 -3.378868 -30.352616 -13.173574 2.613577 -46.152104 -4.835105 8.401924 16.056913 -43.957871 -11.615085 4.507519 -6.093532 -13.815505 24.547636 15.788571 1.861151 48.965255 5.429443 12.765768 -20.985890 44.078427 -14.195703 3.127528 6.880549 -10.545844 
-0.306487 0.527746 0.868818 -3.587690 -2.870693 91.995494 5.975745 -5.721615 -54.082292 -1.470202 21.286730 50.979800 5.267897 15.541716 -14.648872 0.000000 -0.000000 0.000000 1.897961 8.222925 -28.332927 -3.445522 -4.271381 81.702899 2.383047 -10.499832 -38.950331 0.000000 -0.000000 0.000000 -2.571314 2.916592 46.958527 0.501323 -3.157638 -7.251331 1.384249 -0.624826 1.609377 -1.338656 2.912132 -13.171879 5.169019 2.751438 -3.193387 -30.427281 -13.011547 2.713622 -45.983951 -4.777218 8.388878 16.276653 -43.974159 -11.714895 4.233933 -6.099428 -13.790872 24.216939 15.944929 1.893380 49.301145 5.489206 12.850735 -21.244124 44.383888 -14.048776 2.805313 7.010854 -10.835028 
-0.310142 0.557932 0.870381 -3.041121 -2.591813 91.566702 6.332140 -5.373999 -54.147575 -1.817969 21.043291 47.806667 4.252429 14.377132 -9.634966 0.000000 -0.000000 0.000000 2.523303 9.123874 -29.280676 -4.036915 -4.913817 79.938281 1.426232 -11.788955 -40.366477 0.000000 -0.000000 0.000000 -2.374665 2.207859 47.635078 0.472241 -3.013842 -7.239300 1.398734 -0.724602 1.353243 -1.471917 3.063167 -13.218761 5.285392 2.744794 -3.220894 -30.553509 -12.964887 2.770787 -45.809137 -4.741290 8.416178 16.637203 -43.848636 -12.116033 3.869799 -6.107220 -13.629052 24.034452 16.093984 2.056373 49.446134 5.580916 12.821304 -21.670391 44.839184 -14.270960 2.460367 7.120688 -11.175092 
-0.314102 0.589063 0.871881 -2.528256 -2.363995 91.428271 6.843756 -4.416443 -54.481711 -2.645116 20.833599 44.675652 2.220061 12.477515 -4.791092 0.000000 -0.000000 0.000000 2.839389 9.148455 -30.896503 -4.806802 -5.840619 78.356569 0.375173 -12.848941 -41.386148 0.000000 -0.000000 0.000000 -2.237227 1.698717 47.969177 0.488326 -2.905324 -7.132773 1.440790 -0.813477 1.189966 -1.640207 3.412447 -13.340751 5.404417 2.471421 -3.182029 -30.624928 -12.825341 2.686144 -45.789892 -4.828224 8.404796 16.917022 -43.619836 -12.370106 3.474482 -6.041793 -13.640970 24.099684 16.008485 2.278161 49.267424 5.868330 12.550350 -21.684038 45.397585 -13.949835 2.382928 7.238223 -11.470816 
-0.318106 0.619927 0.873547 -1.922360 -2.243086 91.387437 7.436376 -3.152221 -55.106979 -4.007143 19.933504 42.334658 -1.801328 9.947832 -0.965076 0.000000 -0.000000 0.000000 3.241806 8.615159 -32.263367 -5.916018 -6.540771 76.202567 -0.908545 -13.815505 -42.596106 0.000000 -0.000000 0.000000 -2.093581 1.432894 48.211348 0.570504 -2.999482 -7.123346 1.545872 -0.884185 1.151695 -1.730839 3.906394 -13.456324 5.592635 1.906128 -3.202384 -30.559262 -12.747432 2.489091 -46.023996 -4.731733 8.348342 17.090891 -43.551769 -12.228409 3.061200 -6.098281 -13.699310 24.085875 15.782042 2.435936 49.116952 5.957564 11.958043 -21.382835 46.166619 -12.896343 2.618060 7.339581 -11.772962 
-0.321824 0.649446 0.875705 -1.429911 -2.103771 91.133132 8.327542 -1.818868 -55.595964 -5.880485 18.311658 41.835378 -7.406189 7.528788 -1.628141 0.000000 -0.000000 0.000000 3.738823 8.525192 -33.482765 -7.172057 -7.141712 74.317739 -1.569975 -14.342889 -43.308404 0.000000 -0.000000 0.000000 -1.960105 1.278933 48.807697 0.656507 -3.082803 -7.260609 1.654673 -0.885284 1.030867 -1.734728 4.497950 -13.424321 5.757071 1.274020 -3.405296 -30.650334 -12.780145 2.326056 -46.119577 -4.197533 8.258586 17.149106 -43.815017 -11.917936 2.392096 -6.444707 -13.637315 24.171594 15.564698 2.616782 48.873526 5.711137 11.303137 -20.896237 47.064102 -11.579728 2.406722 7.399210 -12.428363 
-0.324564 0.677307 0.877913 -0.944562 -2.029568 90.628386 9.136929 -0.952226 -56.025469 -6.838395 17.285212 45.331053 -8.403079 6.613777 -6.047576 0.000000 -0.000000 0.000000 3.827551 9.001976 -34.740337 -7.769417 -7.849729 73.037800 -1.848599 -15.120567 -43.059078 0.000000 -0.000000 0.000000 -1.997478 0.908010 49.806897 0.714229 -2.996865 -7.818785 1.716148 -0.884073 1.147303 -1.719945 4.515447 -13.506770 5.830973 1.241124 -3.379024 -30.858683 -12.642084 2.461167 -46.022733 -3.851584 8.036338 16.831492 -44.137697 -11.242743 2.138110 -6.584698 -13.683795 24.203871 15.422006 2.771663 48.733904 5.453685 11.090755 -20.753789 47.608480 -10.821643 2.321726 7.407094 -12.918550 
-0.326039 0.704205 0.879618 -0.478746 -2.232789 90.171037 9.774604 -0.668258 -56.624816 -6.069424 17.357128 52.764744 -6.645986 6.057817 -12.331797 0.000000 -0.000000 0.000000 3.618124 9.229221 -36.087366 -7.901703 -7.940681 72.003933 -1.898714 -15.851504 -42.331546 0.000000 -0.000000 0.000000 -2.146279 0.629556 50.718565 0.730911 -2.970903 -8.427084 1.751097 -0.991452 1.401696 -1.701715 3.963701 -13.589463 5.904730 1.636066 -3.407921 -31.036594 -12.483619 2.822642 -45.982488 -3.846155 7.574919 16.281282 -44.110536 -10.439800 2.090302 -6.614523 -13.520418 24.160414 15.315303 2.859694 48.664933 5.343290 11.074120 -20.798883 47.696993 -10.733192 2.377855 7.331477 -12.972782 
-0.326651 0.730458 0.881189 -0.181519 -2.591617 89.931529 10.527220 -0.900002 -56.666372 -4.210615 17.926765 61.296757 -4.602894 6.674313 -17.313933 0.000000 -0.000000 0.000000 3.228481 9.450133 -37.771263 -7.767812 -7.515314 71.245241 -2.031502 -16.489979 -40.925146 0.000000 -0.000000 0.000000 -2.361387 0.498473 51.379659 0.675895 -2.810961 -8.838518 1.742449 -1.109481 1.585201 -1.784734 3.202505 -13.584051 6.053662 2.125209 -3.764534 -31.127015 -12.472544 3.284865 -46.044795 -4.054804 7.223641 15.761601 -43.815232 -9.726892 2.366636 -6.453014 -13.585905 24.051331 15.294332 2.989594 48.727551 5.188673 11.173530 -21.293379 47.561790 -11.167539 2.205136 7.112937 -13.258230 
